<mxfile host="app.diagrams.net" modified="2024-03-07T23:45:57.301Z" agent="Mozilla/5.0 (Windows NT 10.0; Win64; x64) AppleWebKit/537.36 (KHTML, like Gecko) Chrome/122.0.0.0 Safari/537.36" etag="HcPiYDQbY4vkazxTJdcY" version="24.0.2" type="device">
  <diagram name="Page-1" id="DdxX2tv1fuSlj1d3j-6D">
    <mxGraphModel dx="2100" dy="1044" grid="1" gridSize="10" guides="1" tooltips="1" connect="1" arrows="1" fold="1" page="1" pageScale="1" pageWidth="850" pageHeight="1100" math="0" shadow="0">
      <root>
        <mxCell id="0" />
        <mxCell id="1" parent="0" />
        <mxCell id="f0PTaielVYR3YO3EeRfe-6" value="" style="edgeStyle=orthogonalEdgeStyle;rounded=0;orthogonalLoop=1;jettySize=auto;html=1;" edge="1" parent="1" source="f0PTaielVYR3YO3EeRfe-4" target="f0PTaielVYR3YO3EeRfe-5">
          <mxGeometry relative="1" as="geometry" />
        </mxCell>
        <mxCell id="f0PTaielVYR3YO3EeRfe-4" value="&lt;span id=&quot;docs-internal-guid-14c4ff53-7fff-5a3f-a24b-1dd2d730f1bb&quot;&gt;&lt;span style=&quot;font-size: 11pt; font-family: Arial, sans-serif; background-color: transparent; font-variant-numeric: normal; font-variant-east-asian: normal; font-variant-alternates: normal; font-variant-position: normal; vertical-align: baseline; white-space-collapse: preserve;&quot;&gt;Start&lt;/span&gt;&lt;/span&gt;" style="strokeWidth=2;html=1;shape=mxgraph.flowchart.terminator;whiteSpace=wrap;" vertex="1" parent="1">
          <mxGeometry x="200" y="70" width="120" height="60" as="geometry" />
        </mxCell>
        <mxCell id="f0PTaielVYR3YO3EeRfe-8" value="" style="edgeStyle=orthogonalEdgeStyle;rounded=0;orthogonalLoop=1;jettySize=auto;html=1;" edge="1" parent="1" source="f0PTaielVYR3YO3EeRfe-5" target="f0PTaielVYR3YO3EeRfe-7">
          <mxGeometry relative="1" as="geometry" />
        </mxCell>
        <mxCell id="f0PTaielVYR3YO3EeRfe-5" value="&lt;div&gt;Vending machine powers on&lt;/div&gt;" style="whiteSpace=wrap;html=1;strokeWidth=2;" vertex="1" parent="1">
          <mxGeometry x="200" y="160" width="120" height="60" as="geometry" />
        </mxCell>
        <mxCell id="f0PTaielVYR3YO3EeRfe-10" value="" style="edgeStyle=orthogonalEdgeStyle;rounded=0;orthogonalLoop=1;jettySize=auto;html=1;" edge="1" parent="1" source="f0PTaielVYR3YO3EeRfe-7" target="f0PTaielVYR3YO3EeRfe-9">
          <mxGeometry relative="1" as="geometry" />
        </mxCell>
        <mxCell id="f0PTaielVYR3YO3EeRfe-12" value="" style="edgeStyle=orthogonalEdgeStyle;rounded=0;orthogonalLoop=1;jettySize=auto;html=1;" edge="1" parent="1" source="f0PTaielVYR3YO3EeRfe-7" target="f0PTaielVYR3YO3EeRfe-11">
          <mxGeometry relative="1" as="geometry" />
        </mxCell>
        <mxCell id="f0PTaielVYR3YO3EeRfe-7" value="&lt;span id=&quot;docs-internal-guid-c41c1c57-7fff-c159-ee2d-a4e811701e2c&quot;&gt;&lt;span style=&quot;font-size: 11pt; font-family: Arial, sans-serif; background-color: transparent; font-variant-numeric: normal; font-variant-east-asian: normal; font-variant-alternates: normal; font-variant-position: normal; vertical-align: baseline; white-space-collapse: preserve;&quot;&gt;Are there any power interruptions?&lt;/span&gt;&lt;/span&gt;" style="rhombus;whiteSpace=wrap;html=1;strokeWidth=2;" vertex="1" parent="1">
          <mxGeometry x="165" y="250" width="190" height="120" as="geometry" />
        </mxCell>
        <mxCell id="f0PTaielVYR3YO3EeRfe-9" value="&lt;span id=&quot;docs-internal-guid-e046e28c-7fff-5c2f-9a1e-74bbfa1d6f20&quot;&gt;&lt;span style=&quot;font-size: 11pt; font-family: Arial, sans-serif; background-color: transparent; font-variant-numeric: normal; font-variant-east-asian: normal; font-variant-alternates: normal; font-variant-position: normal; vertical-align: baseline; white-space-collapse: preserve;&quot;&gt;Shutdown Machine&lt;/span&gt;&lt;/span&gt;" style="strokeWidth=2;html=1;shape=mxgraph.flowchart.terminator;whiteSpace=wrap;" vertex="1" parent="1">
          <mxGeometry x="460" y="280" width="160" height="60" as="geometry" />
        </mxCell>
        <mxCell id="f0PTaielVYR3YO3EeRfe-14" value="" style="edgeStyle=orthogonalEdgeStyle;rounded=0;orthogonalLoop=1;jettySize=auto;html=1;" edge="1" parent="1" source="f0PTaielVYR3YO3EeRfe-11" target="f0PTaielVYR3YO3EeRfe-13">
          <mxGeometry relative="1" as="geometry" />
        </mxCell>
        <mxCell id="f0PTaielVYR3YO3EeRfe-11" value="Enter IDLE STATE" style="whiteSpace=wrap;html=1;strokeWidth=2;" vertex="1" parent="1">
          <mxGeometry x="200" y="400" width="120" height="60" as="geometry" />
        </mxCell>
        <mxCell id="f0PTaielVYR3YO3EeRfe-16" value="" style="edgeStyle=orthogonalEdgeStyle;rounded=0;orthogonalLoop=1;jettySize=auto;html=1;" edge="1" parent="1" source="f0PTaielVYR3YO3EeRfe-13" target="f0PTaielVYR3YO3EeRfe-15">
          <mxGeometry relative="1" as="geometry" />
        </mxCell>
        <mxCell id="f0PTaielVYR3YO3EeRfe-13" value="&lt;span id=&quot;docs-internal-guid-66b8dd83-7fff-6e3c-863c-861ff15efe57&quot;&gt;&lt;span style=&quot;font-size: 11pt; font-family: Arial, sans-serif; background-color: transparent; font-variant-numeric: normal; font-variant-east-asian: normal; font-variant-alternates: normal; font-variant-position: normal; vertical-align: baseline; white-space-collapse: preserve;&quot;&gt;Is the user ready to order?&lt;/span&gt;&lt;/span&gt;" style="rhombus;whiteSpace=wrap;html=1;strokeWidth=2;spacing=23;" vertex="1" parent="1">
          <mxGeometry x="180" y="490" width="160" height="120" as="geometry" />
        </mxCell>
        <mxCell id="f0PTaielVYR3YO3EeRfe-18" value="" style="edgeStyle=orthogonalEdgeStyle;rounded=0;orthogonalLoop=1;jettySize=auto;html=1;" edge="1" parent="1" source="f0PTaielVYR3YO3EeRfe-15" target="f0PTaielVYR3YO3EeRfe-17">
          <mxGeometry relative="1" as="geometry" />
        </mxCell>
        <mxCell id="f0PTaielVYR3YO3EeRfe-15" value="&lt;span id=&quot;docs-internal-guid-34e59b1c-7fff-3282-6895-653f1412e442&quot;&gt;&lt;span style=&quot;font-size: 11pt; font-family: Arial, sans-serif; background-color: transparent; font-variant-numeric: normal; font-variant-east-asian: normal; font-variant-alternates: normal; font-variant-position: normal; vertical-align: baseline; white-space-collapse: preserve;&quot;&gt;exit IDLE STATE&lt;/span&gt;&lt;/span&gt;" style="whiteSpace=wrap;html=1;strokeWidth=2;spacing=23;" vertex="1" parent="1">
          <mxGeometry x="200" y="640" width="120" height="60" as="geometry" />
        </mxCell>
        <mxCell id="f0PTaielVYR3YO3EeRfe-20" value="" style="edgeStyle=orthogonalEdgeStyle;rounded=0;orthogonalLoop=1;jettySize=auto;html=1;" edge="1" parent="1" source="f0PTaielVYR3YO3EeRfe-17" target="f0PTaielVYR3YO3EeRfe-19">
          <mxGeometry relative="1" as="geometry" />
        </mxCell>
        <mxCell id="f0PTaielVYR3YO3EeRfe-17" value="&lt;span id=&quot;docs-internal-guid-56ef5c8a-7fff-5d66-4987-2a74629a89ae&quot;&gt;&lt;span style=&quot;font-size: 11pt; font-family: Arial, sans-serif; background-color: transparent; font-variant-numeric: normal; font-variant-east-asian: normal; font-variant-alternates: normal; font-variant-position: normal; vertical-align: baseline; white-space-collapse: preserve;&quot;&gt;Enter ACTIVE STATE&lt;/span&gt;&lt;/span&gt;" style="whiteSpace=wrap;html=1;strokeWidth=2;spacing=23;" vertex="1" parent="1">
          <mxGeometry x="200" y="730" width="120" height="60" as="geometry" />
        </mxCell>
        <mxCell id="f0PTaielVYR3YO3EeRfe-22" style="edgeStyle=orthogonalEdgeStyle;rounded=0;orthogonalLoop=1;jettySize=auto;html=1;exitX=1;exitY=0.5;exitDx=0;exitDy=0;" edge="1" parent="1" source="f0PTaielVYR3YO3EeRfe-19">
          <mxGeometry relative="1" as="geometry">
            <mxPoint x="260" y="840" as="targetPoint" />
            <Array as="points">
              <mxPoint x="370" y="900" />
              <mxPoint x="370" y="820" />
              <mxPoint x="261" y="820" />
              <mxPoint x="261" y="840" />
            </Array>
          </mxGeometry>
        </mxCell>
        <mxCell id="f0PTaielVYR3YO3EeRfe-23" value="No" style="edgeLabel;html=1;align=center;verticalAlign=middle;resizable=0;points=[];" vertex="1" connectable="0" parent="f0PTaielVYR3YO3EeRfe-22">
          <mxGeometry x="-0.8205" y="2" relative="1" as="geometry">
            <mxPoint x="-4" y="2" as="offset" />
          </mxGeometry>
        </mxCell>
        <mxCell id="f0PTaielVYR3YO3EeRfe-25" value="" style="edgeStyle=orthogonalEdgeStyle;rounded=0;orthogonalLoop=1;jettySize=auto;html=1;" edge="1" parent="1" source="f0PTaielVYR3YO3EeRfe-19" target="f0PTaielVYR3YO3EeRfe-24">
          <mxGeometry relative="1" as="geometry" />
        </mxCell>
        <mxCell id="f0PTaielVYR3YO3EeRfe-19" value="Is the user ready to pay?" style="rhombus;whiteSpace=wrap;html=1;strokeWidth=2;spacing=23;" vertex="1" parent="1">
          <mxGeometry x="200" y="840" width="120" height="120" as="geometry" />
        </mxCell>
        <mxCell id="f0PTaielVYR3YO3EeRfe-27" value="" style="edgeStyle=orthogonalEdgeStyle;rounded=0;orthogonalLoop=1;jettySize=auto;html=1;" edge="1" parent="1" source="f0PTaielVYR3YO3EeRfe-24" target="f0PTaielVYR3YO3EeRfe-26">
          <mxGeometry relative="1" as="geometry" />
        </mxCell>
        <mxCell id="f0PTaielVYR3YO3EeRfe-24" value="&lt;span id=&quot;docs-internal-guid-80a7473b-7fff-6863-3903-b2d758e9062f&quot;&gt;&lt;span style=&quot;font-size: 11pt; font-family: Arial, sans-serif; background-color: transparent; font-variant-numeric: normal; font-variant-east-asian: normal; font-variant-alternates: normal; font-variant-position: normal; vertical-align: baseline; white-space-collapse: preserve;&quot;&gt;exit ACTIVE STATE&lt;/span&gt;&lt;/span&gt;" style="whiteSpace=wrap;html=1;strokeWidth=2;spacing=23;" vertex="1" parent="1">
          <mxGeometry x="200" y="990" width="120" height="60" as="geometry" />
        </mxCell>
        <mxCell id="f0PTaielVYR3YO3EeRfe-35" value="" style="edgeStyle=orthogonalEdgeStyle;rounded=0;orthogonalLoop=1;jettySize=auto;html=1;" edge="1" parent="1" source="f0PTaielVYR3YO3EeRfe-26" target="f0PTaielVYR3YO3EeRfe-31">
          <mxGeometry relative="1" as="geometry" />
        </mxCell>
        <mxCell id="f0PTaielVYR3YO3EeRfe-26" value="&lt;span id=&quot;docs-internal-guid-974cd73a-7fff-b06d-7913-43a32b747397&quot;&gt;&lt;span style=&quot;font-size: 11pt; font-family: Arial, sans-serif; background-color: transparent; font-variant-numeric: normal; font-variant-east-asian: normal; font-variant-alternates: normal; font-variant-position: normal; vertical-align: baseline; white-space-collapse: preserve;&quot;&gt;Enter PAYMENT STATE&lt;/span&gt;&lt;/span&gt;" style="whiteSpace=wrap;html=1;strokeWidth=2;spacing=23;" vertex="1" parent="1">
          <mxGeometry x="200" y="1080" width="120" height="60" as="geometry" />
        </mxCell>
        <mxCell id="f0PTaielVYR3YO3EeRfe-28" style="edgeStyle=orthogonalEdgeStyle;rounded=0;orthogonalLoop=1;jettySize=auto;html=1;exitX=1;exitY=0.5;exitDx=0;exitDy=0;entryX=0.5;entryY=0;entryDx=0;entryDy=0;" edge="1" parent="1" source="f0PTaielVYR3YO3EeRfe-31" target="f0PTaielVYR3YO3EeRfe-31">
          <mxGeometry relative="1" as="geometry">
            <mxPoint x="260" y="1190" as="targetPoint" />
            <Array as="points">
              <mxPoint x="370" y="1240" />
              <mxPoint x="370" y="1160" />
              <mxPoint x="261" y="1160" />
            </Array>
          </mxGeometry>
        </mxCell>
        <mxCell id="f0PTaielVYR3YO3EeRfe-29" value="No" style="edgeLabel;html=1;align=center;verticalAlign=middle;resizable=0;points=[];" vertex="1" connectable="0" parent="f0PTaielVYR3YO3EeRfe-28">
          <mxGeometry x="-0.8205" y="2" relative="1" as="geometry">
            <mxPoint x="-4" y="2" as="offset" />
          </mxGeometry>
        </mxCell>
        <mxCell id="f0PTaielVYR3YO3EeRfe-30" value="" style="edgeStyle=orthogonalEdgeStyle;rounded=0;orthogonalLoop=1;jettySize=auto;html=1;" edge="1" parent="1" source="f0PTaielVYR3YO3EeRfe-31" target="f0PTaielVYR3YO3EeRfe-33">
          <mxGeometry relative="1" as="geometry" />
        </mxCell>
        <mxCell id="f0PTaielVYR3YO3EeRfe-36" value="Yes" style="edgeLabel;html=1;align=center;verticalAlign=middle;resizable=0;points=[];" vertex="1" connectable="0" parent="f0PTaielVYR3YO3EeRfe-30">
          <mxGeometry x="-0.18" relative="1" as="geometry">
            <mxPoint as="offset" />
          </mxGeometry>
        </mxCell>
        <mxCell id="f0PTaielVYR3YO3EeRfe-31" value="&lt;span id=&quot;docs-internal-guid-13620269-7fff-a582-deb3-c1f4b662443d&quot;&gt;&lt;span style=&quot;font-size: 11pt; font-family: Arial, sans-serif; background-color: transparent; font-variant-numeric: normal; font-variant-east-asian: normal; font-variant-alternates: normal; font-variant-position: normal; vertical-align: baseline; white-space-collapse: preserve;&quot;&gt;Is the user done paying?&lt;/span&gt;&lt;/span&gt;" style="rhombus;whiteSpace=wrap;html=1;strokeWidth=2;spacing=23;" vertex="1" parent="1">
          <mxGeometry x="200" y="1180" width="120" height="120" as="geometry" />
        </mxCell>
        <mxCell id="f0PTaielVYR3YO3EeRfe-32" value="" style="edgeStyle=orthogonalEdgeStyle;rounded=0;orthogonalLoop=1;jettySize=auto;html=1;entryX=0.5;entryY=0;entryDx=0;entryDy=0;" edge="1" parent="1" source="f0PTaielVYR3YO3EeRfe-33" target="f0PTaielVYR3YO3EeRfe-15">
          <mxGeometry relative="1" as="geometry">
            <mxPoint x="260" y="1430" as="targetPoint" />
            <Array as="points">
              <mxPoint x="110" y="1370" />
              <mxPoint x="110" y="620" />
              <mxPoint x="260" y="620" />
            </Array>
          </mxGeometry>
        </mxCell>
        <mxCell id="f0PTaielVYR3YO3EeRfe-33" value="&lt;span id=&quot;docs-internal-guid-063092b6-7fff-dea5-1e5d-d12a28e50698&quot;&gt;&lt;span style=&quot;font-size: 11pt; font-family: Arial, sans-serif; background-color: transparent; font-variant-numeric: normal; font-variant-east-asian: normal; font-variant-alternates: normal; font-variant-position: normal; vertical-align: baseline; white-space-collapse: preserve;&quot;&gt;exit PAYMENT STATE&lt;/span&gt;&lt;/span&gt;" style="whiteSpace=wrap;html=1;strokeWidth=2;spacing=23;" vertex="1" parent="1">
          <mxGeometry x="200" y="1340" width="120" height="60" as="geometry" />
        </mxCell>
      </root>
    </mxGraphModel>
  </diagram>
</mxfile>
